<?xml version="1.0" encoding="utf-8"?>
<!-- Generator: Adobe Illustrator 24.2.3, SVG Export Plug-In . SVG Version: 6.00 Build 0)  -->
<svg version="1.1" xmlns="http://www.w3.org/2000/svg" xmlns:xlink="http://www.w3.org/1999/xlink" x="0px" y="0px"
	 viewBox="0 0 2101 401.98" style="enable-background:new 0 0 2101 401.98;" xml:space="preserve">
<style type="text/css">
	.st0{fill:#020203;}
</style>
<g id="Layer_1">
</g>
<g id="Layer_2">
	<g>
		<path class="st0" d="M315.53,221.53h-186.9c1.05,14.74,4.38,24.83,10,30.27c5.61,5.44,12.98,8.16,22.11,8.16
			c12.64,0,21.76-5.79,27.38-17.37h123.73c-4.21,21.06-13.08,39.93-26.59,56.6c-13.52,16.67-30.54,29.84-51.07,39.49
			c-20.54,9.66-43.09,14.48-67.66,14.48c-29.48,0-55.72-6.14-78.71-18.43c-22.99-12.28-40.9-29.92-53.7-52.92
			c-12.82-22.98-19.22-49.92-19.22-80.81c0-30.88,6.4-57.82,19.22-80.81c12.81-22.99,30.71-40.62,53.7-52.92
			c22.98-12.28,49.22-18.43,78.71-18.43c29.49,0,55.72,6.06,78.71,18.16c22.99,12.11,40.89,29.4,53.7,51.86
			c12.81,22.46,19.22,48.96,19.22,79.5C318.17,205.73,317.28,213.45,315.53,221.53z M199.71,173.61c0-11.23-3.16-19.56-9.48-25.01
			c-6.31-5.43-14.21-8.16-23.69-8.16c-21.41,0-33.69,11.05-36.85,33.17H199.71z"/>
		<path class="st0" d="M489.8,241.71l47.38-180.28h124.25l-98.98,288.03H416.62L317.64,61.43h124.25L489.8,241.71z"/>
		<path class="st0" d="M898.35,67.26c23.87,12.29,42.56,29.93,56.07,52.92c13.51,22.99,20.27,49.93,20.27,80.81
			c0,30.89-6.76,57.83-20.27,80.81c-13.52,22.99-32.21,40.63-56.07,52.92c-23.87,12.29-50.72,18.43-80.55,18.43
			c-29.84,0-56.69-6.14-80.55-18.43c-23.87-12.28-42.57-29.92-56.07-52.92c-13.52-22.98-20.27-49.92-20.27-80.81
			c0-30.88,6.75-57.82,20.27-80.81c13.51-22.99,32.2-40.62,56.07-52.92c23.86-12.28,50.72-18.43,80.55-18.43
			C847.63,48.83,874.48,54.98,898.35,67.26z M790.42,162.82c-7.37,8.61-11.05,21.32-11.05,38.17s3.59,29.57,10.79,38.17
			c7.19,8.61,16.4,12.9,27.64,12.9c10.87,0,20.01-4.29,27.38-12.9c7.37-8.6,11.05-21.32,11.05-38.17s-3.69-29.56-11.05-38.17
			c-7.37-8.6-16.5-12.9-27.38-12.9C806.91,149.92,797.79,154.22,790.42,162.82z"/>
		<path class="st0" d="M1296.37,221.53h-186.9c1.05,14.74,4.39,24.83,10.01,30.27c5.61,5.44,12.98,8.16,22.11,8.16
			c12.63,0,21.76-5.79,27.37-17.37h123.73c-4.21,21.06-13.08,39.93-26.59,56.6c-13.52,16.67-30.54,29.84-51.07,39.49
			c-20.53,9.66-43.09,14.48-67.65,14.48c-29.48,0-55.72-6.14-78.71-18.43c-22.99-12.28-40.89-29.92-53.7-52.92
			c-12.81-22.98-19.21-49.92-19.21-80.81c0-30.88,6.4-57.82,19.21-80.81c12.81-22.99,30.71-40.62,53.7-52.92
			c22.99-12.28,49.23-18.43,78.71-18.43c29.48,0,55.72,6.06,78.71,18.16c22.98,12.11,40.89,29.4,53.7,51.86
			c12.81,22.46,19.21,48.96,19.21,79.5C1299,205.73,1298.12,213.45,1296.37,221.53z M1180.54,173.61c0-11.23-3.16-19.56-9.48-25.01
			c-6.32-5.43-14.22-8.16-23.69-8.16c-21.41,0-33.7,11.05-36.85,33.17H1180.54z"/>
		<path class="st0" d="M1440.1,237.85v111.62h-115.83V237.85H1440.1z"/>
		<path class="st0" d="M1715.19,81.48c26.5,21.77,43.26,51.95,50.28,90.56h-123.73c-4.57-15.44-13.52-23.17-26.85-23.17
			c-9.48,0-16.94,4.4-22.38,13.16c-5.44,8.78-8.16,21.77-8.16,38.96c0,17.2,2.71,30.19,8.16,38.96c5.44,8.78,12.9,13.16,22.38,13.16
			c13.34,0,22.29-7.72,26.85-23.17h123.73c-7.03,38.61-23.78,68.8-50.28,90.56c-26.5,21.76-59.06,32.64-97.66,32.64
			c-29.48,0-55.72-6.14-78.71-18.43c-22.99-12.28-40.89-29.92-53.7-52.92c-12.82-22.98-19.22-49.92-19.22-80.81
			c0-30.88,6.4-57.82,19.22-80.81c12.81-22.99,30.71-40.62,53.7-52.92c22.99-12.28,49.23-18.43,78.71-18.43
			C1656.13,48.83,1688.68,59.72,1715.19,81.48z"/>
		<path class="st0" d="M2035.82,81.48c26.5,21.77,43.26,51.95,50.28,90.56h-123.73c-4.57-15.44-13.51-23.17-26.85-23.17
			c-9.48,0-16.94,4.4-22.38,13.16c-5.44,8.78-8.16,21.77-8.16,38.96c0,17.2,2.71,30.19,8.16,38.96c5.44,8.78,12.9,13.16,22.38,13.16
			c13.34,0,22.28-7.72,26.85-23.17h123.73c-7.02,38.61-23.78,68.8-50.28,90.56c-26.5,21.76-59.06,32.64-97.66,32.64
			c-29.48,0-55.72-6.14-78.71-18.43c-22.99-12.28-40.89-29.92-53.7-52.92c-12.81-22.98-19.21-49.92-19.21-80.81
			c0-30.88,6.4-57.82,19.21-80.81c12.81-22.99,30.71-40.62,53.7-52.92c22.99-12.28,49.23-18.43,78.71-18.43
			C1976.76,48.83,2009.31,59.72,2035.82,81.48z"/>
	</g>
</g>
</svg>
